<?xml version="1.0" encoding="UTF-8" standalone="no"?>
<!-- Created with Inkscape (http://www.inkscape.org/) -->

<svg
   version="1.1"
   id="svg2"
   width="309.86801"
   height="38.666668"
   viewBox="0 0 309.86801 38.666668"
   sodipodi:docname="logo-svg.svg"
   inkscape:export-filename="/home/ir/Sites/adiba/public/images/logo.png"
   inkscape:export-xdpi="96"
   inkscape:export-ydpi="96"
   inkscape:version="1.1.2 (0a00cf5339, 2022-02-04)"
   xmlns:inkscape="http://www.inkscape.org/namespaces/inkscape"
   xmlns:sodipodi="http://sodipodi.sourceforge.net/DTD/sodipodi-0.dtd"
   xmlns="http://www.w3.org/2000/svg"
   xmlns:svg="http://www.w3.org/2000/svg">
  <defs
     id="defs6" />
  <sodipodi:namedview
     id="namedview4"
     pagecolor="#ffffff"
     bordercolor="#666666"
     borderopacity="1.0"
     inkscape:pageshadow="2"
     inkscape:pageopacity="0.0"
     inkscape:pagecheckerboard="0"
     showgrid="false"
     inkscape:zoom="1.4222862"
     inkscape:cx="134.29084"
     inkscape:cy="-38.670137"
     inkscape:window-width="1366"
     inkscape:window-height="740"
     inkscape:window-x="0"
     inkscape:window-y="0"
     inkscape:window-maximized="1"
     inkscape:current-layer="g8" />
  <g
     inkscape:groupmode="layer"
     inkscape:label="Image"
     id="g8">
    <g
       id="g843"
       featurekey="T16ghp-0"
       transform="matrix(0.51989943,0,0,0.51989943,-9.2889419,-11.861152)"
       fill="#a393eb"
       style="fill:#008080;fill-opacity:1">
      <g
         id="g841"
         style="fill:#008080;fill-opacity:1">
        <path
           d="m 98.371,83.209 -5.347,10e-4 c -0.496,0.005 -1.982,-0.132 -2.796,-0.904 -1.61,-1.529 -5.065,-5.97 -6.246,-7.532 l -2.684,-3.64 V 58.438 c 0,-1.104 -0.896,-2 -2,-2 -1.104,0 -2,0.896 -2,2 v 7.271 l -5.421,-7.354 -1.22,-3.984 c -0.671,-2.193 -1.202,-6.48 -1.158,-9.363 0.03,-2.02 1.798,-3.662 3.942,-3.662 1.013,0 1.972,0.414 2.701,1.165 0.745,0.767 1.155,1.784 1.154,2.864 l -0.002,6.029 c 0,1.104 0.895,2.001 2,2.001 0,0 0,0 0,0 1.104,0 2,-0.895 2,-1.999 l 0.002,-6.029 c 0,-2.128 -0.811,-4.135 -2.284,-5.653 -0.814,-0.839 -1.778,-1.463 -2.826,-1.863 2.908,-1.132 4.977,-3.953 4.977,-7.257 0,-4.296 -3.494,-7.79 -7.79,-7.79 -4.296,0 -7.79,3.494 -7.79,7.79 0,3.315 2.085,6.146 5.009,7.268 -2.931,1.107 -5.045,3.858 -5.094,7.076 -0.023,1.552 0.095,3.387 0.304,5.17 L 52.35,31.868 c -0.377,-0.512 -0.975,-0.813 -1.61,-0.813 h -9.979 c -1.104,0 -2,0.896 -2,2 v 9.979 c 0,1.104 0.896,2 2,2 h 5.775 l 12.63,17.131 c 0.656,0.891 1.908,1.08 2.797,0.423 0.889,-0.655 1.078,-1.907 0.423,-2.796 L 49.156,41.848 c -0.377,-0.512 -0.975,-0.813 -1.61,-0.813 H 42.76 v -5.979 h 6.968 c 0,0 35.566,48.083 37.744,50.151 2.173,2.064 5.329,2.013 5.608,2.003 h 3.289 v 5.979 H 90.49 c -0.021,0 -2.158,-0.04 -3.766,-1.261 -1.791,-1.359 -6.337,-7.49 -8.819,-11.087 l -9.34,-12.669 c -0.655,-0.889 -1.906,-1.079 -2.797,-0.423 -0.889,0.655 -1.078,1.907 -0.423,2.796 l 9.304,12.618 c 0.685,0.992 6.771,9.76 9.657,11.95 2.656,2.017 5.821,2.075 6.173,2.075 h 7.893 c 1.104,0 2,-0.896 2,-2 v -9.979 c -0.001,-1.105 -0.897,-2 -2.001,-2 z M 73.374,26.813 c 2.089,0 3.79,1.7 3.79,3.79 0,2.09 -1.7,3.79 -3.79,3.79 -2.09,0 -3.79,-1.7 -3.79,-3.79 0,-2.09 1.7,-3.79 3.79,-3.79 z"
           id="path835"
           style="fill:#008080;fill-opacity:1" />
        <path
           d="M 34.436,31.454 C 33.832,31.907 19.629,42.822 19.629,66.743 v 28.444 c 0,1.104 0.896,2 2,2 1.104,0 2,-0.896 2,-2 V 66.743 c 0,-21.791 13.033,-31.956 13.208,-32.091 0.881,-0.663 1.06,-1.914 0.398,-2.797 -0.662,-0.884 -1.916,-1.064 -2.799,-0.401 z"
           id="path837"
           style="fill:#008080;fill-opacity:1" />
        <path
           d="m 40.761,47.686 c -1.104,0 -2,0.896 -2,2 v 45.502 c 0,1.104 0.896,2 2,2 1.104,0 2,-0.896 2,-2 V 49.686 c 0,-1.105 -0.895,-2 -2,-2 z"
           id="path839"
           style="fill:#008080;fill-opacity:1" />
      </g>
    </g>
    <path
       d="M 78.036324,31.742991 H 66.05275 l -2.343455,6.604281 H 55.027861 L 68.076642,5.75195 h 7.98905 l 13.048781,32.595322 h -8.734695 z m -9.373818,-7.403186 h 6.764062 l -3.355401,-9.480339 z m 41.010454,0.692384 c 0,-3.994524 -1.97063,-6.178198 -6.01842,-6.178198 -1.11846,0 -2.07715,0.159781 -2.87606,0.479343 -1.491284,0.692384 -2.503231,1.704331 -2.982574,3.302141 -0.266301,0.745644 -0.372822,1.544549 -0.372822,2.396714 0,0.852166 0.106521,1.651071 0.372822,2.396715 0.426083,1.54455 1.54455,2.663017 2.982574,3.24888 0.79891,0.372823 1.7576,0.532604 2.87606,0.532604 4.04779,0 6.01842,-2.183674 6.01842,-6.178199 z m 0,-10.652065 V 1.065041 h 7.98905 v 23.967148 c 0,8.468393 -6.01842,13.581385 -14.06073,13.581385 -8.202089,0 -14.167246,-5.326033 -14.167246,-13.474864 0,-7.509706 5.539075,-13.687905 13.102046,-13.687905 2.82279,0 5.27277,0.798905 7.13688,2.929319 z m 13.04878,-2.663017 h 7.98905 v 26.630165 h -7.98905 z m 3.99453,-2.5032355 c -2.71628,0 -4.63365,-1.9173719 -4.63365,-4.6336487 0,-2.7695372 1.91737,-4.5803884 4.63365,-4.5803884 2.76953,0 4.58038,1.8108512 4.58038,4.5803884 0,2.8227975 -1.75759,4.6336487 -4.58038,4.6336487 z m 17.5759,15.8183175 c 0,3.941265 1.97064,6.178199 5.96516,6.178199 1.11847,0 2.13041,-0.159781 2.92932,-0.532604 1.49129,-0.585863 2.50324,-1.70433 3.03584,-3.24888 0.21304,-0.745644 0.31956,-1.544549 0.31956,-2.396715 0,-0.852165 -0.10652,-1.65107 -0.31956,-2.396714 -0.58587,-1.651071 -1.49129,-2.556496 -3.03584,-3.302141 -0.79891,-0.319562 -1.81085,-0.479343 -2.92932,-0.479343 -3.99452,0 -5.96516,2.236934 -5.96516,6.178198 z M 136.30312,1.065041 h 7.98905 v 13.315083 c 1.81086,-2.077153 4.26083,-2.929319 6.97711,-2.929319 7.77601,0 13.26182,6.231459 13.26182,13.687905 0,8.415132 -6.23146,13.474864 -14.16725,13.474864 -8.25535,0 -14.06073,-5.432554 -14.06073,-13.581385 z m 50.65058,23.967148 c -0.21304,-3.888004 -1.97063,-6.178198 -6.01842,-6.178198 -1.11847,0 -2.07715,0.159781 -2.87606,0.479343 -2.44997,1.118467 -3.3554,3.19562 -3.3554,5.752116 0,0.852165 0.10652,1.65107 0.37283,2.343454 0.7989,2.769538 3.19561,3.781484 5.85863,3.781484 4.04779,0 6.01842,-2.183674 6.01842,-6.178199 z m 10.11946,13.315083 h -7.98905 c -0.5326,-1.331508 -1.01194,-2.663017 -1.33151,-4.047785 -1.81085,2.982578 -4.58038,4.314087 -7.98905,4.314087 -7.61622,0 -13.04878,-6.39124 -13.04878,-13.687905 0,-8.415132 6.28472,-13.474864 14.22051,-13.474864 8.46839,0 13.79443,5.432554 14.00747,13.581384 0.0533,0.692385 0.0533,1.49129 0.0533,2.449976 0,3.728223 0.58586,7.456446 2.07715,10.865107 z M 212.35888,5.75195 h 7.98905 V 21.037665 L 230.84021,5.75195 h 9.90642 l -11.39771,16.297661 11.82379,16.297661 h -9.7999 L 220.34793,23.008297 v 15.338975 h -7.98905 z m 30.41164,5.965157 h 7.98905 v 26.630165 h -7.98905 z m 3.99453,-2.5032355 c -2.71628,0 -4.63365,-1.9173719 -4.63365,-4.6336487 0,-2.7695372 1.91737,-4.5803884 4.63365,-4.5803884 2.76954,0 4.58039,1.8108512 4.58039,4.5803884 0,2.8227975 -1.75759,4.6336487 -4.58039,4.6336487 z m 28.28123,15.8183175 c 0,-3.994524 -1.97063,-6.178198 -6.01841,-6.178198 -1.11847,0 -2.07716,0.159781 -2.87606,0.479343 -1.49129,0.692384 -2.50324,1.704331 -2.98258,3.302141 -0.2663,0.745644 -0.37282,1.544549 -0.37282,2.396714 0,0.852166 0.10652,1.651071 0.37282,2.396715 0.42608,1.54455 1.54455,2.663017 2.98258,3.24888 0.7989,0.372823 1.75759,0.532604 2.87606,0.532604 4.04778,0 6.01841,-2.183674 6.01841,-6.178199 z m 0,-10.652065 V 1.065041 h 7.98905 v 23.967148 c 0,8.468393 -6.01841,13.581385 -14.06072,13.581385 -8.20209,0 -14.16725,-5.326033 -14.16725,-13.474864 0,-7.509706 5.53907,-13.687905 13.10204,-13.687905 2.8228,0 5.27277,0.798905 7.13688,2.929319 z m 12.0901,23.114983 v -7.456446 c 3.51518,1.065206 7.93579,1.278247 11.55749,1.278247 1.43803,0 2.5565,-0.05326 3.3554,-0.213041 0.74565,-0.106521 1.11847,-0.372822 1.11847,-0.745645 0,-0.15978 -0.0533,-0.266301 -0.15978,-0.426082 -0.53261,-0.532603 -1.70433,-0.798905 -2.39672,-0.958686 -0.69238,-0.159781 -1.59781,-0.372822 -2.71627,-0.585864 -0.90543,-0.159781 -1.97064,-0.372822 -3.19562,-0.639124 -4.15431,-0.905425 -7.34993,-3.24888 -7.34993,-7.722748 0,-6.60428 6.4445,-8.574913 11.87705,-8.574913 3.40867,0 6.81733,0.479343 10.17273,1.171728 v 7.509706 c -3.3554,-1.011946 -7.13689,-1.278248 -10.65207,-1.278248 -1.38477,0 -2.34345,0.05326 -2.92932,0.213042 -0.58586,0.159781 -0.90542,0.426082 -0.90542,0.745644 0,0.479343 0.47934,0.798905 1.38477,0.958686 0.90542,0.213041 2.18367,0.479343 3.72822,0.745645 1.38477,0.266301 2.71628,0.532603 3.99452,0.852165 3.94127,1.011946 6.76407,3.142359 6.76407,7.403186 0,7.136884 -7.19015,8.894475 -12.94226,8.894475 -3.62171,0 -7.19015,-0.479343 -10.70533,-1.171727 z"
       id="path849"
       style="fill:#008080;fill-opacity:1;stroke:none;stroke-width:0.488677;stroke-miterlimit:4;stroke-dasharray:none;stroke-opacity:1" />
  </g>
</svg>
